<?xml version="1.0" standalone="no"?>
<!DOCTYPE svg PUBLIC "-//W3C//DTD SVG 20010904//EN"
 "http://www.w3.org/TR/2001/REC-SVG-20010904/DTD/svg10.dtd">
<svg version="1.0" xmlns="http://www.w3.org/2000/svg"
 width="612.000000pt" height="612.000000pt" viewBox="0 0 612.000000 612.000000"
 preserveAspectRatio="xMidYMid meet">

<g transform="translate(0.000000,612.000000) scale(0.100000,-0.100000)"
fill="#000000" stroke="none">
<path d="M1780 4305 l0 -154 843 -3 842 -3 80 -28 c199 -71 339 -195 425 -378
44 -96 63 -181 63 -294 2 -306 -177 -558 -475 -672 l-73 -27 -615 -7 c-662 -6
-650 -5 -772 -61 -119 -55 -232 -179 -285 -314 l-28 -69 -3 -317 -3 -318 150
0 150 0 3 282 3 283 29 58 c44 91 136 147 240 147 22 0 36 -5 36 -12 0 -7 1
-179 3 -383 l2 -370 153 -3 152 -3 0 386 0 385 360 0 c312 0 372 2 457 19 208
41 357 118 514 268 201 192 309 446 309 728 0 516 -381 941 -900 1005 -52 6
-390 10 -872 10 l-788 0 0 -155z"/>
<path d="M1780 3690 l0 -150 791 0 791 0 29 -29 c39 -40 41 -97 3 -132 l-26
-24 -566 -5 c-518 -5 -571 -7 -617 -24 -112 -41 -161 -71 -235 -146 -118 -119
-170 -244 -170 -410 l1 -85 18 47 c43 108 121 190 236 244 130 62 155 64 774
64 615 0 626 1 729 63 268 160 247 560 -36 699 l-67 33 -827 3 -828 2 0 -150z"/>
</g>
</svg>
